<svg xmlns="http://www.w3.org/2000/svg" version="1.2" baseProfile="tiny" viewBox="0 0 193 68">
    <defs>
        <linearGradient id="gradient" gradientTransform="rotate(55)">
            <stop offset="0%" stop-color="#f9b248" />
            <stop offset="100%" stop-color="#f4863c" />
        </linearGradient>
    </defs>
    <g stroke-width="2" fill="none" stroke="#8d603b">
        <path vector-effect="non-scaling-stroke"
              d="M85.09 23.68q-4.61 4.26-7.87 10.89M104.98 36.7q-5.03 5.94-7.93 10.83-.2.34.16.7M69.97 44.77q-1.91 1.42-1.97 3.09M115.05 21.1q.22.9-.24 1.43-2.45 2.8-4.94 6.14"/>
    </g>
    <path fill="#25272f" d="M85.09 23.68q-4.61 4.26-7.87 10.89L77.07 8.4q0-.35.35-.35l7.41.03q.36.01.36.37l-.1 15.23Z"/>
    <ellipse fill="#25272f" transform="rotate(-.9 873.503 -9892.347)" rx="4.82" ry="4.56"/>
    <path fill="#25272f"
          d="m27.55 16.99-16.56-.01q-.49 0-.48-.49l.01-5.83q0-.44.45-.45 14.11-.34 27.9-.1.61.01.61.61l.03 3.37q0 .72-.42 1.3L20.88 40.47a.39.38-72.4 0 0 .31.61l17.55-.06a.72.72 0 0 1 .72.72l.01 5.53q0 .74-.74.73l-29.2-.14q-.6-.01-.54-.61c.17-1.74-.34-3.57.78-5.06q10.3-13.65 18.14-24.49.5-.71-.36-.71Z"/>
    <path fill="url('#gradient')"
          d="M104.98 36.7q-5.03 5.94-7.93 10.83-.2.34.16.7-.27.55-.59.62-6.1 1.29-10.67-2.3-.31-.24-.37.15-.19 1.19-1.42 1.24-3.52.12-6.39.03a.73.73 0 0 1-.71-.74l.16-12.66q3.26-6.63 7.87-10.89 4.29-3.32 6.02-3.57 11.24-1.6 13.95 9.15.38 1.53-.08 7.44Zm-8.886-5.015a4.73 4.73 0 0 0-4.587-4.868l-.9-.027a4.73 4.73 0 0 0-4.868 4.588l-.173 5.837a4.73 4.73 0 0 0 4.587 4.868l.9.027a4.73 4.73 0 0 0 4.868-4.588l.173-5.837Z"/>
    <path fill="#25272f"
          d="M174.12 29.88c3.94 2.66 10.24 2.29 11.23 8.22 1.96 11.64-13.05 11.83-19.97 9.52q-.27-.1-.28-.39l-.09-5.93a.18.18 0 0 1 .27-.16c2.71 1.63 10.35 3.97 12.29.49a2.01 2.01 0 0 0-.89-2.8c-4.07-1.93-10.16-2.47-11.39-7.83-1.28-5.52 2.17-9.51 7.43-10.52q5.54-1.06 11.01.69.25.08.25.35l-.03 6.19a.07.07 0 0 1-.11.06q-4.45-2.99-8.85-1.7c-1.7.5-2.57 2.66-.87 3.81ZM69.97 44.77q-1.91 1.42-1.97 3.09l-5.82.06a.68.68 0 0 1-.64-.93q.28-.7.19-1.42-.2-1.58-1.13-.29c-3.32 4.57-10.12 4.77-13.78 1.23q-2.52-2.44-2.71-6.99-.36-8.99-.25-18.04a.37.36 0 0 1 .37-.36l7.58.06a.41.41 0 0 1 .41.41q-.01 8.24 0 16.23.01 4.82 4.56 4.73c2.96-.06 4.64-1.61 4.74-4.57q.31-9.45 0-16.53-.01-.26.25-.26l7.91-.08q.23 0 .23.23l.06 23.43Z"/>
    <path fill="#f4863c" d="M115.05 21.1q.22.9-.24 1.43-2.45 2.8-4.94 6.14l-2.72-6.93q-.22-.54.36-.55l7.54-.09Z"/>
    <path fill="#25272f"
          d="M115.05 21.1q.98-.23 1.19.41 2.68 8.04 5.61 18.69.13.47.27.01l5.85-18.86a.36.35 9 0 1 .34-.24l7.57-.01a.16.16 0 0 1 .15.21q-5.49 15.07-11.43 30.52-4.21 10.96-16.01 9-.27-.05-.27-.32l-.01-6.07q0-.32.31-.23c5.7 1.69 7.8-.79 9.06-5.63q.14-.54-.07-1.06l-7.74-18.85q2.49-3.34 4.94-6.14.46-.53.24-1.43ZM150.61 52.41q.8-1.86.78-4.16-.09-13.65-.16-26.98-.01-.26.25-.26l7.76-.01q.29 0 .28.29-.13 11.88.05 23.74c.14 9.84-3.04 17.32-14.59 15.84q-.66-.08-.66-.75v-5.36q0-.61.59-.46c2.31.59 4.58.73 5.7-1.89ZM104.98 36.7q-.69 7-6.13 10.9-.68.48-1.64.63-.36-.36-.16-.7 2.9-4.89 7.93-10.83Z"/>
    <ellipse fill="#25272f" transform="rotate(-1.3 2030.192 -6176.02)" rx="4.85" ry="4.45"/>
    <path fill="#f9b248" d="M69.97 44.77q.09 1.01.02 2.03-.06.84-.55 1.08-.56.26-1.44-.02.06-1.67 1.97-3.09Z"/>
</svg>