<?xml version="1.0" encoding="UTF-8" standalone="no"?>
<svg xmlns="http://www.w3.org/2000/svg" version="1.2" baseProfile="tiny" viewBox="0.00 0.00 193.00 68.00">
<g stroke-width="2.00" fill="none" stroke-linecap="butt">
<path stroke="#8d603b" vector-effect="non-scaling-stroke" d="
  M 85.09 23.68
  Q 80.48 27.94 77.22 34.57"
/>
<path stroke="#8d603b" vector-effect="non-scaling-stroke" d="
  M 104.98 36.70
  Q 99.95 42.64 97.05 47.53
  Q 96.85 47.87 97.21 48.23"
/>
<path stroke="#8d603b" vector-effect="non-scaling-stroke" d="
  M 69.97 44.77
  Q 68.06 46.19 68.00 47.86"
/>
<path stroke="#8d603b" vector-effect="non-scaling-stroke" d="
  M 115.05 21.10
  Q 115.27 22.00 114.81 22.53
  Q 112.36 25.33 109.87 28.67"
/>
</g>
<path fill="#25272f" d="
  M 85.09 23.68
  Q 80.48 27.94 77.22 34.57
  L 77.07 8.40
  Q 77.07 8.05 77.42 8.05
  L 84.83 8.08
  Q 85.19 8.09 85.19 8.45
  L 85.09 23.68
  Z"
/>
<ellipse fill="#25272f" cx="0.00" cy="0.00" transform="translate(155.49,12.50) rotate(-0.9)" rx="4.82" ry="4.56"/>
<path fill="#25272f" d="
  M 27.55 16.99
  L 10.99 16.98
  Q 10.50 16.98 10.51 16.49
  L 10.52 10.66
  Q 10.52 10.22 10.97 10.21
  Q 25.08 9.87 38.87 10.11
  Q 39.48 10.12 39.48 10.72
  L 39.51 14.09
  Q 39.51 14.81 39.09 15.39
  L 20.88 40.47
  A 0.39 0.38 -72.4 0 0 21.19 41.08
  L 38.74 41.02
  A 0.72 0.72 0.0 0 1 39.46 41.74
  L 39.47 47.27
  Q 39.47 48.01 38.73 48.00
  L 9.53 47.86
  Q 8.93 47.85 8.99 47.25
  C 9.16 45.51 8.65 43.68 9.77 42.19
  Q 20.07 28.54 27.91 17.70
  Q 28.41 16.99 27.55 16.99
  Z"
/>
<path fill="#f59846" d="
  M 104.98 36.70
  Q 99.95 42.64 97.05 47.53
  Q 96.85 47.87 97.21 48.23
  Q 96.94 48.78 96.62 48.85
  Q 90.52 50.14 85.95 46.55
  Q 85.64 46.31 85.58 46.70
  Q 85.39 47.89 84.16 47.94
  Q 80.64 48.06 77.77 47.97
  A 0.73 0.73 0.0 0 1 77.06 47.23
  L 77.22 34.57
  Q 80.48 27.94 85.09 23.68
  Q 89.38 20.36 91.11 20.11
  Q 102.35 18.51 105.06 29.26
  Q 105.44 30.79 104.98 36.70
  Z
  M 96.0943 31.6850
  A 4.73 4.73 0.0 0 0 91.5067 26.8167
  L 90.6071 26.7900
  A 4.73 4.73 0.0 0 0 85.7389 31.3776
  L 85.5657 37.2150
  A 4.73 4.73 0.0 0 0 90.1533 42.0833
  L 91.0529 42.1100
  A 4.73 4.73 0.0 0 0 95.9211 37.5224
  L 96.0943 31.6850
  Z"
/>
<path fill="#25272f" d="
  M 174.12 29.88
  C 178.06 32.54 184.36 32.17 185.35 38.10
  C 187.31 49.74 172.30 49.93 165.38 47.62
  Q 165.11 47.52 165.10 47.23
  L 165.01 41.30
  A 0.18 0.18 0.0 0 1 165.28 41.14
  C 167.99 42.77 175.63 45.11 177.57 41.63
  A 2.01 2.01 0.0 0 0 176.68 38.83
  C 172.61 36.90 166.52 36.36 165.29 31.00
  C 164.01 25.48 167.46 21.49 172.72 20.48
  Q 178.26 19.42 183.73 21.17
  Q 183.98 21.25 183.98 21.52
  L 183.95 27.71
  A 0.07 0.07 0.0 0 1 183.84 27.77
  Q 179.39 24.78 174.99 26.07
  C 173.29 26.57 172.42 28.73 174.12 29.88
  Z"
/>
<path fill="#25272f" d="
  M 69.97 44.77
  Q 68.06 46.19 68.00 47.86
  L 62.18 47.92
  A 0.68 0.68 0.0 0 1 61.54 46.99
  Q 61.82 46.29 61.73 45.57
  Q 61.53 43.99 60.60 45.28
  C 57.28 49.85 50.48 50.05 46.82 46.51
  Q 44.30 44.07 44.11 39.52
  Q 43.75 30.53 43.86 21.48
  A 0.37 0.36 0.0 0 1 44.23 21.12
  L 51.81 21.18
  A 0.41 0.41 0.0 0 1 52.22 21.59
  Q 52.21 29.83 52.22 37.82
  Q 52.23 42.64 56.78 42.55
  C 59.74 42.49 61.42 40.94 61.52 37.98
  Q 61.83 28.53 61.52 21.45
  Q 61.51 21.19 61.77 21.19
  L 69.68 21.11
  Q 69.91 21.11 69.91 21.34
  L 69.97 44.77
  Z"
/>
<path fill="#f59846" d="
  M 115.05 21.10
  Q 115.27 22.00 114.81 22.53
  Q 112.36 25.33 109.87 28.67
  L 107.15 21.74
  Q 106.93 21.20 107.51 21.19
  L 115.05 21.10
  Z"
/>
<path fill="#25272f" d="
  M 115.05 21.10
  Q 116.03 20.87 116.24 21.51
  Q 118.92 29.55 121.85 40.20
  Q 121.98 40.67 122.12 40.21
  L 127.97 21.35
  A 0.36 0.35 9.0 0 1 128.31 21.11
  L 135.88 21.10
  A 0.16 0.16 0.0 0 1 136.03 21.31
  Q 130.54 36.38 124.60 51.83
  Q 120.39 62.79 108.59 60.83
  Q 108.32 60.78 108.32 60.51
  L 108.31 54.44
  Q 108.31 54.12 108.62 54.21
  C 114.32 55.90 116.42 53.42 117.68 48.58
  Q 117.82 48.04 117.61 47.52
  L 109.87 28.67
  Q 112.36 25.33 114.81 22.53
  Q 115.27 22.00 115.05 21.10
  Z"
/>
<path fill="#25272f" d="
  M 150.61 52.41
  Q 151.41 50.55 151.39 48.25
  Q 151.30 34.60 151.23 21.27
  Q 151.22 21.01 151.48 21.01
  L 159.24 21.00
  Q 159.53 21.00 159.52 21.29
  Q 159.39 33.17 159.57 45.03
  C 159.71 54.87 156.53 62.35 144.98 60.87
  Q 144.32 60.79 144.32 60.12
  L 144.32 54.76
  Q 144.32 54.15 144.91 54.30
  C 147.22 54.89 149.49 55.03 150.61 52.41
  Z"
/>
<path fill="#25272f" d="
  M 104.98 36.70
  Q 104.29 43.70 98.85 47.60
  Q 98.17 48.08 97.21 48.23
  Q 96.85 47.87 97.05 47.53
  Q 99.95 42.64 104.98 36.70
  Z"
/>
<ellipse fill="#25272f" cx="0.00" cy="0.00" transform="translate(140.64,44.47) rotate(-1.3)" rx="4.85" ry="4.45"/>
<path fill="#f59846" d="
  M 69.97 44.77
  Q 70.06 45.78 69.99 46.80
  Q 69.93 47.64 69.44 47.88
  Q 68.88 48.14 68.00 47.86
  Q 68.06 46.19 69.97 44.77
  Z"
/>
</svg>
